# AST/ASF file generated using VICON BodyLanguage
# -----------------------------------------------
:version 1.10
:name VICON
:units
  mass 1.0
  length 0.45
  angle deg
:documentation
   .ast/.asf automatically generated from VICON data using
   VICON BodyBuilder and BodyLanguage model FoxedUp or BRILLIANT.MOD
:root
   order TX TY TZ RX RY RZ
   axis XYZ
   position 0 0 0  
   orientation 0 0 0 
:bonedata
  begin
     id 1 
     name lhipjoint
     direction 0.528046 -0.759594 0.379717 
     length 2.39752 
     axis 0 0 0  XYZ
  end
  begin
     id 2 
     name lfemur
     direction 0.34202 -0.939693 0  
     length 7.31175  
     axis 0 0 20  XYZ
    dof rx ry rz
    limits (-160.0 20.0)
           (-70.0 70.0)
           (-60.0 70.0)
  end
  begin
     id 3 
     name ltibia
     direction 0.34202 -0.939693 0   
     length 7.52482   
     axis 0 0 20   XYZ
    dof rx
    limits (-10.0 170.0)
  end
  begin
     id 4 
     name lfoot
     direction 0.0675379 -0.185559 0.980309   
     length 2.00961   
     axis -90 7.62852e-016 20   XYZ
    dof rx rz
    limits (-45.0 90.0)
           (-70.0 20.0)
  end
  begin
     id 5 
     name ltoes
     direction 1.5352e-011 -4.22286e-011 1   
     length 1.01383   
     axis -90 7.62852e-016 20   XYZ
    dof rx
    limits (-90.0 20.0)
  end
  begin
     id 6 
     name rhipjoint
     direction -0.510274 -0.769251 0.384544   
     length 2.36742  
     axis 0 0 0  XYZ 
  end
  begin
     id 7 
     name rfemur
     direction -0.34202 -0.939693 0   
     length 7.45325   
     axis 0 0 -20   XYZ
    dof rx ry rz
    limits (-160.0 20.0)
           (-70.0 70.0)
           (-70.0 60.0)
  end
  begin
     id 8 
     name rtibia
     direction -0.34202 -0.939693 0   
     length 7.49587   
     axis 0 0 -20   XYZ
    dof rx
    limits (-10.0 170.0)
 end
 begin
     id 9 
     name rfoot
     direction -0.106475 -0.292536 0.950308   
     length 2.20898  
     axis -90 -7.62852e-016 -20   XYZ
    dof rx rz
    limits (-45.0 90.0)
           (-20.0 70.0)
  end
  begin
     id 10 
     name rtoes
     direction -1.53597e-011 -4.22023e-011 1   
     length 1.10065   
     axis -90 -7.62852e-016 -20   XYZ
    dof rx
    limits (-90.0 20.0)
  end
  begin
     id 11 
     name lowerback
     direction 0.0260024 0.998026 -0.0571652   
     length 2.11214   
     axis 0 0 0   XYZ
    dof rx ry rz
    limits (-20.0 45.0)
           (-30.0 30.0)
           (-30.0 30.0)
  end
  begin
     id 12 
     name upperback
     direction 0.0216202 0.999542 -0.0211766   
     length 2.11689   
     axis 0 0 0   XYZ
    dof rx ry rz
    limits (-20.0 45.0)
           (-30.0 30.0)
           (-30.0 30.0)
  end
  begin
     id 13 
     name thorax
     direction 0.00883312 0.999944 0.00589057   
     length 2.11821   
     axis 0 0 0   XYZ
    dof rx ry rz
    limits (-20.0 45.0)
           (-30.0 30.0)
           (-30.0 30.0)
  end
  begin
     id 14 
     name lowerneck
     direction -0.059386 0.994433 0.0870401   
     length 1.81176   
     axis 0 0 0   XYZ
    dof rx ry rz
    limits (-20.0 45.0)
           (-30.0 30.0)
           (-30.0 30.0)
  end
  begin
     id 15 
     name upperneck
     direction 0.0506457 0.97328 -0.223967   
     length 1.82382   
     axis 0 0 0   XYZ
    dof rx ry rz
    limits (-20.0 45.0)
           (-30.0 30.0)
           (-30.0 30.0)
  end
  begin
     id 16
     name head
     direction 0.0205902 0.996147 -0.0852487  
     length 1.84805  
     axis 0 0 0   XYZ
    dof rx ry rz
    limits (-20.0 45.0)
           (-30.0 30.0)
           (-30.0 30.0)
  end
  begin
     id 17 
     name lclavicle
     direction 0.949493 0.303881 -0.0782325  
     length 3.60584  
     axis 0 0 0   XYZ
    dof ry rz
    limits (-20.0 10.0)
           (0.0 20.0)
  end
  begin
     id 18 
     name lhumerus
     direction 1 -4.48965e-011 1.48782e-027   
     length 4.95681   
     axis 180 -30 -90   XYZ
    dof rx ry rz
    limits (-60.0 90.0)
           (-90.0 90.0)
           (-90.0 90.0)
  end
  begin
     id 19
     name lradius
     direction 1 -4.48952e-011 2.06528e-027   
     length 3.40915   
     axis 180 -30 -90   XYZ
    dof rx
    limits (-10.0 170.0)
  end
  begin
     id 20
     name lwrist
     direction 1 -4.48964e-011 1.28021e-027   
     length 1.70457   
     axis -1.61767e-015 90 90   XYZ
    dof ry
    limits (-180.0 0.0)
 end
  begin
     id 21 
     name lhand
     direction 1 -4.49094e-011 2.54887e-027   
     length 0.616403   
     axis -1.63363e-015 90 90   XYZ
    dof rx rz
    limits (-90.0 90.0)
           (-45.0 45.0)
  end
  begin
     id 22 
     name lfingers
     direction 1 -4.49002e-011 5.11407e-027   
     length 0.49696   
     axis -3.26723e-015 90 90   XYZ
    dof rx
    limits (0.0 90.0)
  end
  begin
     id 23
     name lthumb
     direction 0.707107 -6.34998e-011 0.707107   
     length 0.713539   
     axis -90 45 -2.25915e-014   XYZ
    dof rx rz
    limits (-45.0 45.0)
           (-45.0 45.0)
  end
  begin
     id 24 
     name rclavicle
     direction -0.937751 0.334612 -0.0930482   
     length 3.46287  
     axis 0 0 0   XYZ 
    dof ry rz
    limits (-10.0 20.0)
           (-20.0 0.0)
  end
  begin
     id 25 
     name rhumerus
     direction -1 -4.48962e-011 3.59972e-027  
     length 5.352   
     axis 180 30 90   XYZ
    dof rx ry rz
    limits (-90.0 60.0)
           (-90.0 90.0)
           (-90.0 90.0)
  end
  begin
     id 26 
     name rradius
     direction -1 -4.48987e-011 -3.76925e-027   
     length 3.43721   
     axis 180 30 90   XYZ
    dof rx
    limits (-10.0 170.0)
  end
  begin
     id 27 
     name rwrist
     direction -1 -4.48943e-011 1.28112e-027   
     length 1.7186   
     axis -1.61767e-015 -90 -90   XYZ
    dof ry
    limits (-180.0 0.0)
  end
  begin
     id 28
     name rhand
     direction -1 -4.49027e-011 2.55483e-027   
     length 0.72009   
     axis -1.63363e-015 -90 -90   XYZ
    dof rx rz
    limits (-90.0 90.0)
           (-45.0 45.0)
  end
  begin
     id 29
     name rfingers
     direction -1 -4.48827e-011 5.14506e-027   
     length 0.580555   
     axis -3.26723e-015 -90 -90   XYZ
    dof rx
    limits (0.0 90.0)
  end
  begin
     id 30
     name rthumb
     direction -0.707107 -6.34936e-011 0.707107   
     length 0.833564   
     axis -90 -45 2.25915e-014   XYZ
    dof rx rz
    limits (-45.0 45.0)
           (-45.0 45.0)
  end
:hierarchy
  begin
    root lhipjoint rhipjoint lowerback
    lhipjoint lfemur
    lfemur ltibia
    ltibia lfoot
    lfoot ltoes
    rhipjoint rfemur
    rfemur rtibia
    rtibia rfoot
    rfoot rtoes
    lowerback upperback
    upperback thorax
    thorax lowerneck lclavicle rclavicle
    lowerneck upperneck
    upperneck head
    lclavicle lhumerus
    lhumerus lradius
    lradius lwrist
    lwrist lhand lthumb
    lhand lfingers
    rclavicle rhumerus
    rhumerus rradius
    rradius rwrist
    rwrist rhand rthumb
    rhand rfingers
  end

#!OML:ASF H:\Terrain\Patient Classification 1\Terrain2\Thursday\justin.ASF
:FULLY-SPECIFIED
:DEGREES
1
root 19.0726 17.3699 -24.156 2.49079 -6.44377 -3.13196
lowerback -0.290453 -1.52337 1.00942
upperback -1.30024 -1.99863 3.90314
thorax -1.06619 -0.99189 3.45676
lowerneck -10.3566 -6.77476 -13.4301
upperneck 27.5664 -7.51887 2.3774
head 11.3284 -4.56878 2.12843
rclavicle 8.64713e-015 3.02153e-014
rhumerus -38.7949 -2.79332 -81.4304
rradius 31.1007
rwrist -9.78981
rhand -17.3749 1.98814
rfingers 7.12502
rthumb 8.87357 -27.8053
lclavicle 8.64713e-015 3.02153e-014
lhumerus -33.0267 2.57657 91.6569
lradius 25.2472
lwrist -2.70393
lhand -9.23488 26.5584
lfingers 7.12502
lthumb 16.7203 55.8583
rfemur -8.69498 -1.73107 26.097
rtibia 30.9739
rfoot -20.9505 -4.44357
rtoes 9.80598
lfemur -8.46749 0.889403 -17.7847
ltibia 29.5583
lfoot -19.4243 3.53724
ltoes -0.567607
2
root 19.0772 17.376 -24.1582 2.61814 -6.26124 -2.9304
lowerback -0.307155 -1.53797 0.916452
upperback -1.40935 -2.01524 3.83832
thorax -1.16706 -0.998388 3.44387
lowerneck -10.0775 -6.84808 -13.3235
upperneck 27.2947 -7.67483 2.33821
head 11.1753 -4.62909 2.08463
rclavicle -1.36664e-014 -1.74931e-014
rhumerus -39.1108 -3.23963 -81.1866
rradius 30.9822
rwrist -9.72383
rhand -16.925 2.18256
rfingers 7.12502
rthumb 9.3077 -27.592
lclavicle -1.36664e-014 -1.74931e-014
lhumerus -33.1705 2.62949 91.5266
lradius 25.0147
lwrist -2.73803
lhand -12.4465 21.9603
lfingers 7.12502
lthumb 13.6267 51.4943
rfemur -8.91696 -1.86814 25.8673
rtibia 31.0612
rfoot -20.9937 -4.37332
rtoes 9.97524
lfemur -8.61483 1.05824 -17.9936
ltibia 29.3885
lfoot -19.1769 3.3019
ltoes -0.525034
3
root 19.0831 17.3746 -24.156 2.57744 -6.22328 -2.70085
lowerback -0.231123 -1.51939 0.819265
upperback -1.41435 -1.98879 3.76006
thorax -1.21562 -0.984096 3.41988
lowerneck -9.95754 -6.92415 -13.393
upperneck 27.0465 -7.82532 2.4922
head 11.0799 -4.68139 2.13553
rclavicle -4.8491e-014 8.74653e-015
rhumerus -39.2858 -3.70866 -80.9371
rradius 30.6774
rwrist -9.62422
rhand -16.8705 2.58124
rfingers 7.12502
rthumb 9.36034 -27.1909
lclavicle -4.8491e-014 8.74653e-015
lhumerus -33.2137 2.60353 91.4283
lradius 24.7795
lwrist -2.79119
lhand -9.82581 25.2973
lfingers 7.12502
lthumb 16.1514 54.6444
rfemur -8.92222 -1.78158 25.5999
rtibia 31.1105
rfoot -20.9297 -4.63268
rtoes 9.70363
lfemur -8.56797 1.24895 -18.2595
ltibia 29.3077
lfoot -19.0813 3.24982
ltoes -1.12177
4
root 19.0856 17.3751 -24.1545 2.54594 -6.1459 -2.60168
lowerback -0.192027 -1.49886 0.818987
upperback -1.37255 -1.96176 3.73237
thorax -1.19699 -0.970952 3.39151
lowerneck -9.87302 -7.03129 -13.5515
upperneck 26.787 -8.01474 2.71983
head 10.9999 -4.75114 2.2205
rclavicle 2.12824e-014 -5.56597e-015
rhumerus -39.3449 -4.32781 -80.613
rradius 30.2481
rwrist -9.34155
rhand -16.141 2.2677
rfingers 7.12502
rthumb 10.0641 -27.4716
lclavicle 2.12824e-014 -5.56597e-015
lhumerus -33.2036 2.49902 91.3709
lradius 24.6521
lwrist -2.80915
lhand -11.6719 23.3221
lfingers 7.12502
lthumb 14.3732 52.8045
rfemur -8.90265 -1.83017 25.4903
rtibia 31.1375
rfoot -20.8888 -4.73286
rtoes 9.73714
lfemur -8.52648 1.37327 -18.3731
ltibia 29.2555
lfoot -19.0618 3.21039
ltoes -2.24189
5
root 19.0917 17.3782 -24.1544 2.57868 -6.07797 -2.67649
lowerback -0.174394 -1.5091 0.990162
upperback -1.34585 -1.97428 3.80134
thorax -1.18224 -0.978923 3.36666
lowerneck -9.81289 -7.12912 -13.5986
upperneck 26.5247 -8.14935 2.72639
head 10.9049 -4.80965 2.214
rclavicle 4.36705e-015 -2.78299e-014
rhumerus -39.4041 -4.70575 -80.3314
rradius 29.9663
rwrist -8.96664
rhand -15.2241 0.96476
rfingers 7.12502
rthumb 10.9486 -28.7298
lclavicle 4.36705e-015 -2.78299e-014
lhumerus -33.3167 2.57648 91.3335
lradius 24.7005
lwrist -2.87294
lhand -8.454 26.6332
lfingers 7.12502
lthumb 17.472 55.868
rfemur -8.93568 -1.9158 25.5466
rtibia 31.1536
rfoot -20.8465 -4.54242
rtoes 10.7055
lfemur -8.56438 1.42592 -18.3099
ltibia 29.2325
lfoot -19.0181 3.15235
ltoes -2.72175
6
root 19.1019 17.3806 -24.158 2.72502 -6.08708 -2.81515
lowerback -0.176469 -1.56591 1.19772
upperback -1.36871 -2.04694 3.97387
thorax -1.20209 -1.01662 3.42953
lowerneck -9.87536 -7.20709 -13.5669
upperneck 26.2982 -8.17405 2.43844
head 10.8224 -4.84259 2.09951
rclavicle -3.3927e-014 3.18055e-014
rhumerus -39.5198 -4.35742 -80.2947
rradius 29.8451
rwrist -8.84891
rhand -15.476 0.0655548
rfingers 7.12502
rthumb 10.7056 -29.6417
lclavicle -3.3927e-014 3.18055e-014
lhumerus -33.6064 2.95313 91.292
lradius 24.8682
lwrist -3.00636
lhand -8.64356 25.9296
lfingers 7.12502
lthumb 17.2895 55.1805
rfemur -9.10225 -1.7642 25.6793
rtibia 31.1642
rfoot -20.8854 -4.76711
rtoes 10.4779
lfemur -8.73223 1.45677 -18.1834
ltibia 29.2131
lfoot -18.9344 2.96547
ltoes -1.64303
7
root 19.109 17.3846 -24.1592 2.83907 -6.08777 -2.85488
lowerback -0.185283 -1.59254 1.2854
upperback -1.42036 -2.07939 4.08904
thorax -1.24763 -1.03293 3.5007
lowerneck -9.77273 -7.3183 -13.6768
upperneck 26.0468 -8.30546 2.37904
head 10.7253 -4.91405 2.08131
rclavicle -1.74123e-014 3.18055e-015
rhumerus -39.7485 -4.05695 -80.3065
rradius 29.5744
rwrist -8.60989
rhand -15.9668 0.112176
rfingers 7.12502
rthumb 10.2322 -29.619
lclavicle -1.74123e-014 3.18055e-015
lhumerus -33.8374 3.04681 91.3045
lradius 24.7849
lwrist -2.87398
lhand -11.3892 22.7647
lfingers 7.12502
lthumb 14.6456 52.2275
rfemur -9.24861 -1.68919 25.7111
rtibia 31.1805
rfoot -21.0359 -5.08003
rtoes 9.39635
lfemur -8.8577 1.52679 -18.1477
ltibia 29.1978
lfoot -18.924 2.74715
ltoes -0.614974
8
root 19.1124 17.3878 -24.1588 2.80551 -6.03484 -2.76999
lowerback -0.0757039 -1.58442 1.25117
upperback -1.47025 -2.06238 4.1049
thorax -1.35955 -1.0232 3.54108
lowerneck -9.46166 -7.46035 -13.8777
upperneck 25.6974 -8.55761 2.55834
head 10.5777 -5.0234 2.15478
rclavicle 5.35569e-014 -3.18055e-014
rhumerus -40.0819 -4.29939 -80.1265
rradius 29.3307
rwrist -8.40493
rhand -15.7834 -0.0254472
rfingers 7.12502
rthumb 10.4091 -29.7478
lclavicle 5.35569e-014 -3.18055e-014
lhumerus -34.0469 2.92456 91.3353
lradius 24.6199
lwrist -2.80715
lhand -12.8964 21.0534
lfingers 7.12502
lthumb 13.1931 50.616
rfemur -9.25956 -1.6494 25.6119
rtibia 31.2176
rfoot -21.0779 -5.12906
rtoes 9.48382
lfemur -8.82476 1.53736 -18.234
ltibia 29.1753
lfoot -18.9961 2.61546
ltoes 0.11178
9
root 19.1156 17.3866 -24.1597 2.79033 -5.93524 -2.69178
lowerback -0.0078994 -1.57141 1.24137
upperback -1.50141 -2.0413 4.08555
thorax -1.4311 -1.0121 3.5293
lowerneck -9.07558 -7.6164 -13.8436
upperneck 25.1892 -8.82734 2.52408
head 10.3373 -5.13915 2.11723
rclavicle 2.38945e-014 -2.38542e-014
rhumerus -40.3489 -4.98292 -79.7396
rradius 29.1242
rwrist -8.13548
rhand -15.0648 -0.859731
rfingers 7.12502
rthumb 11.1023 -30.5461
lclavicle 2.38945e-014 -2.38542e-014
lhumerus -34.3251 2.61546 91.3559
lradius 24.6865
lwrist -2.748
lhand -12.972 20.0577
lfingers 7.12502
lthumb 13.1202 49.625
rfemur -9.26815 -1.5331 25.5438
rtibia 31.2655
rfoot -21.1622 -5.4444
rtoes 8.81232
lfemur -8.8248 1.62795 -18.306
ltibia 29.1446
lfoot -18.9674 2.38679
ltoes 0.570936
10
root 19.1185 17.3848 -24.1591 2.76939 -5.8597 -2.58521
lowerback 0.0105726 -1.62849 1.13963
upperback -1.50261 -2.11724 4.14107
thorax -1.43307 -1.04862 3.64556
lowerneck -8.63902 -7.72771 -13.6819
upperneck 24.5523 -8.9821 2.17449
head 10.0117 -5.22158 1.96948
rclavicle -5.71195e-015 4.29375e-014
rhumerus -40.4177 -5.42894 -79.356
rradius 28.5579
rwrist -7.70674
rhand -14.6916 -0.906808
rfingers 7.12502
rthumb 11.4622 -30.5735
lclavicle -5.71195e-015 4.29375e-014
lhumerus -34.5531 2.62643 91.3227
lradius 24.7234
lwrist -2.70356
lhand -9.27961 25.4642
lfingers 7.12502
lthumb 16.6773 54.7678
rfemur -9.23799 -1.50124 25.4389
rtibia 31.3083
rfoot -21.3381 -5.79396
rtoes 7.69066
lfemur -8.80898 1.84067 -18.4207
ltibia 29.1228
lfoot -18.8446 2.21769
ltoes -0.161051
11
root 19.1225 17.3852 -24.1594 2.71002 -5.78188 -2.42578
lowerback 0.110491 -1.75934 0.923002
upperback -1.45183 -2.29123 4.3199
thorax -1.41199 -1.13285 3.95732
lowerneck -8.44406 -7.84649 -13.7853
upperneck 23.8903 -9.06315 1.82718
head 9.73687 -5.28792 1.86718
rclavicle -1.51185e-014 3.18055e-015
rhumerus -40.3153 -5.29039 -79.1038
rradius 27.8639
rwrist -7.99569
rhand -15.0528 0.217445
rfingers 7.12502
rthumb 11.1139 -29.4683
lclavicle -1.51185e-014 3.18055e-015
lhumerus -34.5156 3.23686 91.3375
lradius 24.4907
lwrist -2.93787
lhand -8.19803 27.0945
lfingers 7.12502
lthumb 17.7183 56.3073
rfemur -9.20212 -1.57778 25.2488
rtibia 31.3273
rfoot -21.3419 -5.60421
rtoes 8.12991
lfemur -8.76747 1.89857 -18.614
ltibia 29.1308
lfoot -18.8077 2.29947
ltoes -1.37638
12
root 19.1284 17.3846 -24.1607 2.73802 -5.6841 -2.35861
lowerback 0.109775 -1.85643 0.890109
upperback -1.36566 -2.42374 4.47079
thorax -1.30716 -1.19961 4.13176
lowerneck -8.42572 -7.99711 -14.01
upperneck 23.2588 -9.19803 1.70915
head 9.52999 -5.36291 1.85043
rclavicle 1.61202e-015 7.95139e-015
rhumerus -40.1919 -5.2076 -78.9249
rradius 27.4559
rwrist -8.56023
rhand -15.0509 0.526595
rfingers 7.12502
rthumb 11.1157 -29.159
lclavicle 1.61202e-015 7.95139e-015
lhumerus -34.4103 3.38688 91.4876
lradius 24.3162
lwrist -2.70513
lhand -9.9272 26.0849
lfingers 7.12502
lthumb 16.0537 55.4399
rfemur -9.30045 -1.69514 25.1575
rtibia 31.3378
rfoot -21.1752 -5.39343
rtoes 8.41264
lfemur -8.8304 1.80319 -18.6953
ltibia 29.1359
lfoot -18.8933 2.23177
ltoes -0.779643
13
root 19.1324 17.3821 -24.1599 2.75976 -5.59312 -2.44346
lowerback 0.112873 -1.91498 0.996615
upperback -1.33605 -2.50111 4.60777
thorax -1.27209 -1.23949 4.21431
lowerneck -8.22262 -8.10053 -14.1366
upperneck 22.7506 -9.32453 1.61558
head 9.32797 -5.42868 1.83537
rclavicle 5.43738e-014 -3.65764e-014
rhumerus -40.2489 -5.32313 -78.7416
rradius 27.2246
rwrist -8.96702
rhand -14.6146 0.0838668
rfingers 7.12502
rthumb 11.5364 -29.5786
lclavicle 5.43738e-014 -3.65764e-014
lhumerus -34.5601 3.39322 91.543
lradius 24.3245
lwrist -2.49233
lhand -13.2858 22.0407
lfingers 7.12502
lthumb 12.8177 51.6272
rfemur -9.34567 -1.64752 25.2624
rtibia 31.3633
rfoot -21.0924 -5.81006
rtoes 7.84895
lfemur -8.84122 1.76574 -18.5863
ltibia 29.1128
lfoot -18.893 1.91444
ltoes 1.34875
14
root 19.136 17.3834 -24.1575 2.76399 -5.46936 -2.45614
lowerback 0.15511 -1.95366 1.00037
upperback -1.36977 -2.54896 4.69712
thorax -1.32362 -1.26257 4.30839
lowerneck -7.82077 -8.21459 -14.2226
upperneck 22.2704 -9.5311 1.62021
head 9.10888 -5.52197 1.84653
rclavicle -7.44821e-015 6.36111e-015
rhumerus -40.4404 -5.51326 -78.6242
rradius 26.9141
rwrist -9.24009
rhand -14.5965 -0.16819
rfingers 7.12502
rthumb 11.5539 -29.8297
lclavicle -7.44821e-015 6.36111e-015
lhumerus -34.7704 3.84024 91.3702
lradius 24.2748
lwrist -2.9831
lhand -9.52899 25.4367
lfingers 7.12502
lthumb 16.4372 54.7604
rfemur -9.32352 -1.56219 25.287
rtibia 31.4045
rfoot -21.1645 -6.12954
rtoes 8.09076
lfemur -8.83541 1.7992 -18.5693
ltibia 29.074
lfoot -18.7676 1.76291
ltoes 1.89225
15
root 19.1402 17.3873 -24.157 2.79393 -5.37794 -2.36161
lowerback 0.118371 -1.98297 1.01442
upperback -1.36076 -2.58994 4.6647
thorax -1.29303 -1.28364 4.26524
lowerneck -7.48797 -8.37974 -14.2361
upperneck 21.7708 -9.83346 1.73243
head 8.90545 -5.64282 1.86976
rclavicle -5.68276e-014 4.77083e-015
rhumerus -40.4818 -5.8788 -78.5925
rradius 26.5922
rwrist -9.40394
rhand -14.3133 -1.14139
rfingers 7.12502
rthumb 11.827 -30.7874
lclavicle -5.68276e-014 4.77083e-015
lhumerus -34.8633 4.15382 91.1344
lradius 24.2041
lwrist -3.28684
lhand -9.23621 25.8821
lfingers 7.12502
lthumb 16.719 55.1821
rfemur -9.34426 -1.58561 25.1774
rtibia 31.4471
rfoot -21.275 -5.86979
rtoes 9.05509
lfemur -8.89223 1.9183 -18.6803
ltibia 29.0451
lfoot -18.7462 1.72966
ltoes 0.771335
